<?xml version="1.0" ?><!DOCTYPE svg  PUBLIC '-//W3C//DTD SVG 1.1//EN'  'http://www.w3.org/Graphics/SVG/1.1/DTD/svg11.dtd'><svg height="1.70667in" style="shape-rendering:geometricPrecision; text-rendering:geometricPrecision; image-rendering:optimizeQuality; fill-rule:evenodd; clip-rule:evenodd" version="1.1" viewBox="0 0 7630 7630" width="1.70667in" xml:space="preserve" xmlns="http://www.w3.org/2000/svg" xmlns:xlink="http://www.w3.org/1999/xlink"><defs><style type="text/css">
   <![CDATA[
    .fil0 {fill:none}
    .fil1 {fill:black;fill-rule:nonzero}
   ]]>
  </style></defs><g id="Layer_x0020_1"><rect class="fil0" height="7630" width="7630"/><path class="fil1" d="M4672 4604c-75,106 -187,189 -332,248 -144,59 -316,89 -512,89 -235,0 -432,-41 -585,-121 -110,-59 -201,-138 -270,-236 -69,-99 -104,-197 -104,-291 0,-59 23,-110 68,-152 45,-42 102,-63 171,-63 56,0 104,16 144,49 38,32 70,78 96,138 29,66 60,121 94,164 32,43 78,78 137,105 59,28 139,42 237,42 136,0 247,-29 330,-85 82,-54 121,-120 121,-201 0,-64 -21,-114 -63,-153 -45,-41 -104,-73 -174,-95 -75,-23 -176,-48 -301,-73 -170,-36 -314,-78 -429,-127 -117,-49 -211,-117 -281,-202 -70,-87 -105,-196 -105,-324 0,-121 37,-231 111,-326 73,-94 179,-168 317,-217 136,-50 297,-75 480,-75 146,0 275,17 382,50 108,33 199,77 270,132 72,56 126,115 159,177 34,62 51,124 51,183 0,58 -22,111 -67,156 -44,46 -101,69 -168,69 -60,0 -108,-14 -140,-43 -31,-27 -63,-68 -98,-128 -41,-76 -91,-137 -147,-179 -55,-42 -147,-62 -273,-62 -117,0 -213,23 -284,69 -68,44 -101,94 -101,154 0,37 10,68 33,94 23,28 56,52 97,73 43,21 88,39 132,51 45,12 121,31 226,54 133,28 254,60 362,94 109,34 203,76 280,126 78,50 140,115 184,192 44,77 67,173 67,284 0,133 -39,254 -115,360zm797 -771c0,-891 -732,-1613 -1636,-1613 -95,0 -189,8 -280,24 -146,-91 -319,-144 -504,-144 -525,0 -949,418 -949,936 0,172 47,333 130,473 -22,104 -33,213 -33,324 0,891 732,1613 1636,1613 102,0 202,-10 300,-27 133,71 286,111 448,111 524,0 949,-419 949,-935 0,-150 -36,-291 -99,-416 25,-112 38,-227 38,-346z"/></g></svg>