<?xml version="1.0" ?><!DOCTYPE svg  PUBLIC '-//W3C//DTD SVG 1.1//EN'  'http://www.w3.org/Graphics/SVG/1.1/DTD/svg11.dtd'><svg height="1.70667in" style="shape-rendering:geometricPrecision; text-rendering:geometricPrecision; image-rendering:optimizeQuality; fill-rule:evenodd; clip-rule:evenodd" version="1.1" viewBox="0 0 7630 7630" width="1.70667in" xml:space="preserve" xmlns="http://www.w3.org/2000/svg" xmlns:xlink="http://www.w3.org/1999/xlink"><defs><style type="text/css">
   <![CDATA[
    .fil0 {fill:none}
    .fil1 {fill:black;fill-rule:nonzero}
   ]]>
  </style></defs><g id="Layer_x0020_1"><rect class="fil0" height="7630" width="7630"/><path class="fil1" d="M2998 4892c0,188 19,332 59,431 39,99 111,193 213,281 102,89 226,157 371,204 145,48 312,72 500,72 166,0 321,-17 464,-50 143,-34 303,-92 479,-175l0 -649c-207,136 -415,204 -624,204 -117,0 -222,-28 -313,-83 -69,-40 -116,-95 -142,-162 -25,-68 -38,-222 -38,-462l0 -1059 981 0 0 -648 -981 0 0 -1046 -585 0c-26,213 -74,388 -144,526 -69,138 -162,256 -277,354 -115,98 -254,173 -415,226l0 588 452 0 0 1448z"/></g></svg>